<?xml version="1.0" encoding="iso-8859-1"?>
<!-- Generator: Adobe Illustrator 17.1.0, SVG Export Plug-In . SVG Version: 6.00 Build 0)  -->
<!DOCTYPE svg PUBLIC "-//W3C//DTD SVG 1.1//EN" "http://www.w3.org/Graphics/SVG/1.1/DTD/svg11.dtd">
<svg version="1.1" id="Capa_1" xmlns="http://www.w3.org/2000/svg" xmlns:xlink="http://www.w3.org/1999/xlink" x="0px"
	y="0px" viewBox="0 0 224.841 224.841" style="enable-background:new 0 0 224.841 224.841;" xml:space="preserve">
	<path d="M216.798,189.063L134.941,2.982c-0.018-0.041-0.045-0.076-0.064-0.116c-0.086-0.182-0.182-0.358-0.289-0.528
	c-0.036-0.058-0.07-0.118-0.108-0.173c-0.14-0.204-0.294-0.399-0.464-0.581c-0.042-0.045-0.088-0.083-0.131-0.126
	c-0.136-0.136-0.28-0.264-0.433-0.384c-0.066-0.052-0.133-0.101-0.201-0.15c-0.052-0.037-0.1-0.08-0.154-0.115
	c-0.104-0.068-0.213-0.122-0.321-0.182c-0.059-0.033-0.115-0.069-0.175-0.099c-0.22-0.11-0.445-0.203-0.676-0.279
	c-0.066-0.022-0.134-0.036-0.201-0.055c-0.177-0.05-0.355-0.091-0.535-0.121c-0.085-0.014-0.17-0.027-0.257-0.037
	c-0.207-0.024-0.415-0.035-0.623-0.033c-0.044,0.001-0.087-0.004-0.131-0.003c-0.257,0.01-0.513,0.044-0.768,0.094
	c-0.025,0.005-0.05,0.004-0.074,0.009c-0.039,0.008-0.073,0.025-0.112,0.034c-0.204,0.048-0.404,0.109-0.603,0.182
	c-0.059,0.022-0.12,0.041-0.178,0.065c-0.031,0.013-0.062,0.021-0.093,0.034l-13.328,5.862c-1.665,0.732-3.56,0.732-5.225,0
	L96.469,0.419c-0.03-0.013-0.062-0.021-0.093-0.034c-0.058-0.024-0.118-0.043-0.178-0.065c-0.198-0.074-0.399-0.135-0.603-0.182
	c-0.038-0.009-0.073-0.026-0.111-0.034c-0.025-0.005-0.05-0.004-0.075-0.009C95.157,0.045,94.903,0.01,94.647,0
	c-0.056-0.002-0.11,0.004-0.166,0.003c-0.193-0.001-0.386,0.008-0.578,0.03c-0.099,0.011-0.196,0.026-0.294,0.042
	c-0.158,0.027-0.314,0.064-0.47,0.106c-0.087,0.024-0.175,0.043-0.261,0.071c-0.219,0.073-0.435,0.162-0.644,0.266
	c-0.079,0.039-0.154,0.087-0.231,0.13c-0.093,0.053-0.189,0.099-0.28,0.158c-0.049,0.032-0.091,0.07-0.139,0.104
	c-0.078,0.055-0.155,0.112-0.23,0.172c-0.141,0.112-0.274,0.232-0.402,0.357c-0.051,0.05-0.104,0.095-0.153,0.147
	c-0.168,0.18-0.32,0.373-0.458,0.574c-0.04,0.058-0.074,0.119-0.112,0.179c-0.106,0.169-0.202,0.343-0.287,0.523
	c-0.019,0.041-0.046,0.076-0.064,0.117L7.849,189.457c-0.891,2.028-0.362,4.466,1.475,5.94c0.92,0.738,2.101,1.074,3.281,1.074
	h79.099l16.482,26.044c0.015,0.024,0.034,0.044,0.049,0.067c0.035,0.053,0.075,0.103,0.112,0.155
	c0.138,0.194,0.289,0.377,0.451,0.547c0.042,0.044,0.081,0.089,0.124,0.132c0.199,0.194,0.413,0.37,0.64,0.528
	c0.052,0.036,0.108,0.068,0.162,0.103c0.203,0.13,0.414,0.245,0.634,0.344c0.052,0.023,0.1,0.051,0.153,0.072
	c0.258,0.106,0.527,0.187,0.801,0.249c0.068,0.015,0.137,0.027,0.207,0.04c0.292,0.053,0.589,0.09,0.892,0.09s0.6-0.037,0.892-0.09
	c0.069-0.013,0.138-0.025,0.207-0.04c0.274-0.062,0.543-0.142,0.801-0.249c0.052-0.022,0.101-0.049,0.153-0.072
	c0.22-0.099,0.431-0.214,0.634-0.344c0.054-0.035,0.109-0.066,0.162-0.103c0.227-0.158,0.44-0.333,0.64-0.528
	c0.043-0.042,0.082-0.088,0.124-0.132c0.162-0.171,0.313-0.353,0.451-0.547c0.037-0.052,0.077-0.101,0.112-0.155
	c0.015-0.023,0.034-0.044,0.049-0.067l16.481-26.044h79.279c0.01,0.001,0.016,0.001,0.02,0c2.762,0,5-2.238,5-5
	C217.415,190.599,217.192,189.777,216.798,189.063z M124.034,192.123l-3.423,5.408c-0.929,1.468-3.2,0.81-3.2-0.928V17.872
	c0-1.043,0.617-1.988,1.572-2.408l4.014-1.766c1.115-0.491,2.367,0.326,2.367,1.545v172.291
	C125.364,189.159,124.903,190.75,124.034,192.123z M101.824,13.698l4.015,1.766c0.955,0.42,1.572,1.365,1.572,2.408v178.733
	c0,1.738-2.271,2.396-3.2,0.928l-3.423-5.409c-0.869-1.373-1.33-2.964-1.33-4.589V15.243
	C99.457,14.025,100.708,13.208,101.824,13.698z" />
</svg>