<?xml version="1.0" standalone="no"?>
<!DOCTYPE svg PUBLIC "-//W3C//DTD SVG 20010904//EN"
 "http://www.w3.org/TR/2001/REC-SVG-20010904/DTD/svg10.dtd">
<svg version="1.0" xmlns="http://www.w3.org/2000/svg"
 width="399.000000pt" height="189.000000pt" viewBox="0 0 399.000000 189.000000"
 preserveAspectRatio="xMidYMid meet">

<g transform="translate(0.000000,189.000000) scale(0.100000,-0.100000)"
fill="#5e5e5e" stroke="none">
<path d="M1367 1833 c-3 -5 -8 -30 -12 -58 -11 -73 -40 -161 -80 -243 -19 -40
-35 -74 -35 -76 0 -14 -240 -420 -297 -503 -24 -34 -43 -64 -43 -67 0 -6 -232
-343 -292 -424 -22 -29 -45 -51 -51 -49 -7 2 -13 28 -15 59 -5 101 60 288 209
596 94 194 132 285 148 362 7 30 16 69 20 85 4 17 4 44 0 60 -4 17 -10 42 -13
57 -7 33 -70 99 -116 123 -52 27 -192 32 -266 10 -190 -57 -381 -209 -454
-361 -45 -93 -18 -182 73 -234 60 -35 83 -35 80 0 -10 165 261 474 438 497 49
7 99 -21 100 -57 2 -53 -3 -87 -21 -137 -25 -68 -100 -217 -111 -221 -5 -2 -9
-8 -9 -14 0 -9 -36 -76 -121 -223 -25 -43 -91 -175 -120 -240 -38 -86 -61
-186 -62 -265 -1 -72 3 -93 26 -141 30 -62 80 -103 160 -133 l48 -18 37 34
c21 18 53 52 72 75 19 23 96 112 170 199 293 342 482 599 621 844 80 140 108
224 109 320 0 66 -14 97 -59 127 -34 23 -124 33 -134 16z"/>
<path d="M1812 1680 c-71 -43 -92 -125 -46 -179 70 -83 194 -22 194 97 0 44
-4 54 -31 76 -37 31 -73 33 -117 6z"/>
<path d="M3486 1587 c-31 -33 -56 -93 -56 -134 0 -10 11 -34 25 -53 14 -19 25
-38 25 -43 0 -5 -18 -36 -40 -69 -22 -33 -40 -62 -40 -64 0 -2 -20 -36 -46
-75 -25 -39 -43 -76 -41 -82 4 -12 57 58 132 175 30 46 57 78 67 78 27 0 41
-37 36 -94 -4 -41 -18 -72 -73 -161 -37 -60 -80 -128 -94 -150 -81 -120 -165
-290 -186 -375 -27 -110 -3 -165 82 -190 35 -11 47 -10 75 3 44 21 196 182
258 273 113 166 240 360 240 368 0 3 14 28 30 57 47 79 29 83 -24 4 -26 -38
-66 -99 -90 -135 -134 -199 -317 -410 -356 -410 -16 0 -20 6 -20 34 0 41 42
123 146 283 144 222 174 281 174 345 0 52 -12 72 -98 160 l-65 66 27 64 c19
45 26 77 24 109 -3 43 -4 44 -41 47 -33 3 -43 -2 -71 -31z"/>
<path d="M2159 1393 c-81 -42 -174 -122 -222 -192 -17 -25 -43 -59 -58 -76
-15 -16 -53 -66 -85 -110 -151 -211 -340 -425 -376 -425 -10 0 -21 6 -24 14
-6 16 18 91 45 146 10 19 28 55 39 80 33 70 182 338 239 432 28 46 33 60 24
76 -20 37 -105 40 -158 5 -27 -18 -76 -85 -129 -176 -21 -38 -46 -81 -55 -95
-82 -138 -186 -345 -203 -401 -9 -31 -16 -91 -16 -136 0 -73 3 -85 25 -109 39
-42 70 -49 132 -30 63 20 123 80 228 227 37 50 72 92 78 92 9 0 11 -22 9 -75
-4 -81 7 -121 41 -158 25 -27 108 -72 132 -72 20 0 29 11 197 235 156 208 185
242 199 228 22 -22 -311 -536 -403 -622 -46 -43 -121 -82 -174 -89 -25 -4 -45
-11 -46 -17 -2 -15 70 -62 121 -80 60 -20 124 -19 170 4 52 27 130 107 184
189 51 78 64 103 199 382 234 483 310 622 368 675 26 24 25 35 -5 67 -46 50
-100 49 -159 -2 -32 -28 -66 -33 -66 -8 0 15 -103 58 -141 58 -23 0 -65 -14
-110 -37z m227 -118 c3 -8 -10 -36 -30 -64 -20 -27 -36 -51 -36 -54 0 -11
-165 -254 -245 -362 -112 -149 -152 -197 -186 -218 -59 -38 -65 7 -13 114 119
244 318 513 429 580 36 23 74 24 81 4z"/>
<path d="M2920 1391 c-78 -24 -118 -61 -154 -143 -14 -32 -35 -62 -48 -69 -69
-35 -155 -143 -227 -287 -55 -109 -75 -182 -74 -277 0 -118 40 -180 133 -209
55 -17 72 -18 133 0 150 42 260 161 398 428 40 79 61 108 82 117 30 13 36 29
11 29 -14 0 -16 8 -10 53 19 155 19 177 1 232 -32 104 -138 158 -245 126z
m156 -76 c8 -20 12 -40 9 -44 -2 -5 -7 -26 -11 -47 -11 -69 -43 -160 -64 -179
-18 -16 -21 -16 -44 -2 -27 18 -61 70 -71 108 -16 63 82 199 142 199 18 0 28
-9 39 -35z m-208 -338 c20 -13 49 -31 64 -40 34 -21 31 -31 -55 -177 -73 -123
-189 -250 -229 -250 -41 0 -62 32 -54 82 7 42 137 316 189 396 12 19 43 15 85
-11z"/>
</g>
</svg>
